<mxfile host="app.diagrams.net" modified="2023-12-04T18:23:39.478Z" agent="Mozilla/5.0 (Windows NT 10.0; Win64; x64) AppleWebKit/537.36 (KHTML, like Gecko) Chrome/119.0.0.0 Safari/537.36 Edg/119.0.0.0" etag="w59mrBZFzSJnxtG45rAj" version="22.1.5" type="github">
  <diagram name="Page-1" id="e56a1550-8fbb-45ad-956c-1786394a9013">
    <mxGraphModel dx="2565" dy="1083" grid="1" gridSize="10" guides="1" tooltips="1" connect="1" arrows="1" fold="1" page="1" pageScale="1" pageWidth="1100" pageHeight="850" background="none" math="0" shadow="0">
      <root>
        <mxCell id="0" />
        <mxCell id="1" parent="0" />
        <mxCell id="Z0ykWC_E-WQSqIn5DrD2-17" value="&lt;font style=&quot;font-size: 25px;&quot;&gt;Container&lt;/font&gt;" style="rounded=0;whiteSpace=wrap;html=1;" parent="1" vertex="1">
          <mxGeometry x="850" y="440" width="150" height="80" as="geometry" />
        </mxCell>
        <mxCell id="Z0ykWC_E-WQSqIn5DrD2-18" value="&lt;font style=&quot;font-size: 25px;&quot;&gt;possui&lt;/font&gt;" style="rhombus;whiteSpace=wrap;html=1;" parent="1" vertex="1">
          <mxGeometry x="1220" y="421.25" width="180" height="127.5" as="geometry" />
        </mxCell>
        <mxCell id="Z0ykWC_E-WQSqIn5DrD2-19" value="&lt;font style=&quot;font-size: 25px;&quot;&gt;Animal&lt;/font&gt;" style="rounded=0;whiteSpace=wrap;html=1;" parent="1" vertex="1">
          <mxGeometry x="1560" y="440" width="160" height="80" as="geometry" />
        </mxCell>
        <mxCell id="Z0ykWC_E-WQSqIn5DrD2-27" value="" style="endArrow=none;html=1;rounded=0;entryX=0.5;entryY=1;entryDx=0;entryDy=0;" parent="1" target="Z0ykWC_E-WQSqIn5DrD2-17" edge="1">
          <mxGeometry width="50" height="50" relative="1" as="geometry">
            <mxPoint x="925" y="640" as="sourcePoint" />
            <mxPoint x="930" y="550" as="targetPoint" />
          </mxGeometry>
        </mxCell>
        <mxCell id="Z0ykWC_E-WQSqIn5DrD2-28" value="&lt;font style=&quot;font-size: 25px;&quot;&gt;ALA&lt;/font&gt;" style="rounded=0;whiteSpace=wrap;html=1;" parent="1" vertex="1">
          <mxGeometry x="835" y="790" width="180" height="80" as="geometry" />
        </mxCell>
        <mxCell id="Z0ykWC_E-WQSqIn5DrD2-29" value="&lt;font style=&quot;font-size: 25px;&quot;&gt;Possui&lt;/font&gt;" style="rhombus;whiteSpace=wrap;html=1;" parent="1" vertex="1">
          <mxGeometry x="860" y="590" width="130" height="100" as="geometry" />
        </mxCell>
        <mxCell id="Z0ykWC_E-WQSqIn5DrD2-31" value="" style="endArrow=none;html=1;rounded=0;exitX=0.5;exitY=0;exitDx=0;exitDy=0;entryX=0.5;entryY=1;entryDx=0;entryDy=0;" parent="1" source="Z0ykWC_E-WQSqIn5DrD2-28" target="Z0ykWC_E-WQSqIn5DrD2-29" edge="1">
          <mxGeometry width="50" height="50" relative="1" as="geometry">
            <mxPoint x="850" y="850" as="sourcePoint" />
            <mxPoint x="920" y="760" as="targetPoint" />
          </mxGeometry>
        </mxCell>
        <mxCell id="Z0ykWC_E-WQSqIn5DrD2-33" value="" style="endArrow=none;html=1;rounded=0;entryX=0;entryY=0.5;entryDx=0;entryDy=0;exitX=1;exitY=0.5;exitDx=0;exitDy=0;" parent="1" source="Z0ykWC_E-WQSqIn5DrD2-34" target="Z0ykWC_E-WQSqIn5DrD2-17" edge="1">
          <mxGeometry width="50" height="50" relative="1" as="geometry">
            <mxPoint x="700" y="485" as="sourcePoint" />
            <mxPoint x="840" y="479" as="targetPoint" />
          </mxGeometry>
        </mxCell>
        <mxCell id="Z0ykWC_E-WQSqIn5DrD2-34" value="&lt;font style=&quot;font-size: 25px;&quot;&gt;Limpar&lt;/font&gt;" style="rhombus;whiteSpace=wrap;html=1;" parent="1" vertex="1">
          <mxGeometry x="530" y="432.5" width="150" height="105" as="geometry" />
        </mxCell>
        <mxCell id="Z0ykWC_E-WQSqIn5DrD2-35" value="" style="endArrow=none;html=1;rounded=0;exitX=0;exitY=0.5;exitDx=0;exitDy=0;entryX=1;entryY=0.5;entryDx=0;entryDy=0;" parent="1" source="Z0ykWC_E-WQSqIn5DrD2-34" target="Z0ykWC_E-WQSqIn5DrD2-36" edge="1">
          <mxGeometry width="50" height="50" relative="1" as="geometry">
            <mxPoint x="590" y="525" as="sourcePoint" />
            <mxPoint x="390" y="488" as="targetPoint" />
          </mxGeometry>
        </mxCell>
        <mxCell id="Z0ykWC_E-WQSqIn5DrD2-36" value="&lt;font style=&quot;font-size: 25px;&quot;&gt;limpeza&lt;/font&gt;" style="rounded=0;whiteSpace=wrap;html=1;" parent="1" vertex="1">
          <mxGeometry x="270" y="450" width="130" height="70" as="geometry" />
        </mxCell>
        <mxCell id="Z0ykWC_E-WQSqIn5DrD2-37" value="" style="endArrow=none;html=1;rounded=0;exitX=1;exitY=0.5;exitDx=0;exitDy=0;" parent="1" source="Z0ykWC_E-WQSqIn5DrD2-17" target="Z0ykWC_E-WQSqIn5DrD2-18" edge="1">
          <mxGeometry width="50" height="50" relative="1" as="geometry">
            <mxPoint x="1020" y="550" as="sourcePoint" />
            <mxPoint x="1140" y="550" as="targetPoint" />
          </mxGeometry>
        </mxCell>
        <mxCell id="Z0ykWC_E-WQSqIn5DrD2-38" value="" style="endArrow=none;html=1;rounded=0;entryX=0.5;entryY=1;entryDx=0;entryDy=0;exitX=0.5;exitY=0;exitDx=0;exitDy=0;" parent="1" source="Z0ykWC_E-WQSqIn5DrD2-40" target="Z0ykWC_E-WQSqIn5DrD2-36" edge="1">
          <mxGeometry width="50" height="50" relative="1" as="geometry">
            <mxPoint x="335" y="630" as="sourcePoint" />
            <mxPoint x="1110" y="610" as="targetPoint" />
            <Array as="points" />
          </mxGeometry>
        </mxCell>
        <mxCell id="Z0ykWC_E-WQSqIn5DrD2-40" value="&lt;font style=&quot;font-size: 25px;&quot;&gt;Realiza&lt;/font&gt;" style="rhombus;whiteSpace=wrap;html=1;" parent="1" vertex="1">
          <mxGeometry x="265" y="920" width="140" height="110" as="geometry" />
        </mxCell>
        <mxCell id="Z0ykWC_E-WQSqIn5DrD2-41" value="" style="endArrow=none;html=1;rounded=0;entryX=0.5;entryY=1;entryDx=0;entryDy=0;exitX=0.5;exitY=0;exitDx=0;exitDy=0;" parent="1" source="Z0ykWC_E-WQSqIn5DrD2-43" target="Z0ykWC_E-WQSqIn5DrD2-40" edge="1">
          <mxGeometry width="50" height="50" relative="1" as="geometry">
            <mxPoint x="335" y="840" as="sourcePoint" />
            <mxPoint x="330" y="750" as="targetPoint" />
          </mxGeometry>
        </mxCell>
        <mxCell id="Z0ykWC_E-WQSqIn5DrD2-42" value="" style="endArrow=none;html=1;rounded=0;entryX=0.5;entryY=1;entryDx=0;entryDy=0;" parent="1" target="Z0ykWC_E-WQSqIn5DrD2-45" edge="1">
          <mxGeometry width="50" height="50" relative="1" as="geometry">
            <mxPoint x="1650" y="520" as="sourcePoint" />
            <mxPoint x="1820" y="478" as="targetPoint" />
          </mxGeometry>
        </mxCell>
        <mxCell id="6vCeA2fwryCrlESm8v7a-3" style="edgeStyle=orthogonalEdgeStyle;rounded=0;orthogonalLoop=1;jettySize=auto;html=1;exitX=1;exitY=0.5;exitDx=0;exitDy=0;" edge="1" parent="1" source="Z0ykWC_E-WQSqIn5DrD2-43" target="6vCeA2fwryCrlESm8v7a-1">
          <mxGeometry relative="1" as="geometry" />
        </mxCell>
        <mxCell id="Z0ykWC_E-WQSqIn5DrD2-43" value="&lt;span style=&quot;font-size: 25px;&quot;&gt;Funcionario&lt;/span&gt;" style="rounded=0;whiteSpace=wrap;html=1;" parent="1" vertex="1">
          <mxGeometry x="255" y="1170" width="170" height="80" as="geometry" />
        </mxCell>
        <mxCell id="Z0ykWC_E-WQSqIn5DrD2-44" value="" style="endArrow=none;html=1;rounded=0;entryX=0;entryY=0.5;entryDx=0;entryDy=0;exitX=1;exitY=0.5;exitDx=0;exitDy=0;entryPerimeter=0;" parent="1" source="Z0ykWC_E-WQSqIn5DrD2-18" target="Z0ykWC_E-WQSqIn5DrD2-19" edge="1">
          <mxGeometry width="50" height="50" relative="1" as="geometry">
            <mxPoint x="1360" y="495" as="sourcePoint" />
            <mxPoint x="1520" y="490" as="targetPoint" />
          </mxGeometry>
        </mxCell>
        <mxCell id="Z0ykWC_E-WQSqIn5DrD2-45" value="&lt;font style=&quot;font-size: 25px;&quot;&gt;Pertence&lt;/font&gt;" style="rhombus;whiteSpace=wrap;html=1;" parent="1" vertex="1">
          <mxGeometry x="1570" y="600" width="160" height="100" as="geometry" />
        </mxCell>
        <mxCell id="Z0ykWC_E-WQSqIn5DrD2-47" value="" style="endArrow=none;html=1;rounded=0;exitX=0.5;exitY=1;exitDx=0;exitDy=0;entryX=0.5;entryY=0;entryDx=0;entryDy=0;" parent="1" source="Z0ykWC_E-WQSqIn5DrD2-45" target="Z0ykWC_E-WQSqIn5DrD2-48" edge="1">
          <mxGeometry width="50" height="50" relative="1" as="geometry">
            <mxPoint x="1610" y="750" as="sourcePoint" />
            <mxPoint x="1590" y="840" as="targetPoint" />
          </mxGeometry>
        </mxCell>
        <mxCell id="Z0ykWC_E-WQSqIn5DrD2-48" value="&lt;font style=&quot;font-size: 25px;&quot;&gt;CLASSE&lt;/font&gt;" style="rounded=0;whiteSpace=wrap;html=1;" parent="1" vertex="1">
          <mxGeometry x="1565" y="790" width="170" height="80" as="geometry" />
        </mxCell>
        <mxCell id="Z0ykWC_E-WQSqIn5DrD2-49" value="" style="endArrow=none;html=1;rounded=0;exitX=1;exitY=0.5;exitDx=0;exitDy=0;entryX=0;entryY=0.5;entryDx=0;entryDy=0;" parent="1" source="Z0ykWC_E-WQSqIn5DrD2-19" target="Z0ykWC_E-WQSqIn5DrD2-50" edge="1">
          <mxGeometry width="50" height="50" relative="1" as="geometry">
            <mxPoint x="1700" y="490" as="sourcePoint" />
            <mxPoint x="1800" y="480" as="targetPoint" />
          </mxGeometry>
        </mxCell>
        <mxCell id="Z0ykWC_E-WQSqIn5DrD2-50" value="&lt;font style=&quot;font-size: 25px;&quot;&gt;Consulta&lt;/font&gt;" style="rhombus;whiteSpace=wrap;html=1;" parent="1" vertex="1">
          <mxGeometry x="1880" y="425" width="150" height="110" as="geometry" />
        </mxCell>
        <mxCell id="Z0ykWC_E-WQSqIn5DrD2-51" value="" style="endArrow=none;html=1;rounded=0;entryX=0;entryY=0.5;entryDx=0;entryDy=0;exitX=0.5;exitY=1;exitDx=0;exitDy=0;" parent="1" source="Z0ykWC_E-WQSqIn5DrD2-50" target="Z0ykWC_E-WQSqIn5DrD2-52" edge="1">
          <mxGeometry width="50" height="50" relative="1" as="geometry">
            <mxPoint x="2060" y="490" as="sourcePoint" />
            <mxPoint x="2140" y="480" as="targetPoint" />
          </mxGeometry>
        </mxCell>
        <mxCell id="Z0ykWC_E-WQSqIn5DrD2-52" value="&lt;span style=&quot;font-size: 25px;&quot;&gt;Veterinário&lt;/span&gt;" style="rounded=0;whiteSpace=wrap;html=1;" parent="1" vertex="1">
          <mxGeometry x="1970" y="1180" width="160" height="80" as="geometry" />
        </mxCell>
        <mxCell id="Z0ykWC_E-WQSqIn5DrD2-53" value="" style="endArrow=none;html=1;rounded=0;entryX=0.5;entryY=1;entryDx=0;entryDy=0;exitX=0.5;exitY=0;exitDx=0;exitDy=0;" parent="1" source="Z0ykWC_E-WQSqIn5DrD2-54" target="Z0ykWC_E-WQSqIn5DrD2-43" edge="1">
          <mxGeometry width="50" height="50" relative="1" as="geometry">
            <mxPoint x="335" y="1050" as="sourcePoint" />
            <mxPoint x="335" y="980" as="targetPoint" />
          </mxGeometry>
        </mxCell>
        <mxCell id="Z0ykWC_E-WQSqIn5DrD2-54" value="&lt;span style=&quot;font-size: 25px;&quot;&gt;Possui&lt;/span&gt;" style="rhombus;whiteSpace=wrap;html=1;" parent="1" vertex="1">
          <mxGeometry x="262.5" y="1330" width="155" height="120" as="geometry" />
        </mxCell>
        <mxCell id="Z0ykWC_E-WQSqIn5DrD2-55" value="" style="endArrow=none;html=1;rounded=0;entryX=0.5;entryY=1;entryDx=0;entryDy=0;exitX=0.5;exitY=0;exitDx=0;exitDy=0;" parent="1" source="Z0ykWC_E-WQSqIn5DrD2-56" target="Z0ykWC_E-WQSqIn5DrD2-54" edge="1">
          <mxGeometry width="50" height="50" relative="1" as="geometry">
            <mxPoint x="320" y="1330" as="sourcePoint" />
            <mxPoint x="470" y="1170" as="targetPoint" />
          </mxGeometry>
        </mxCell>
        <mxCell id="Z0ykWC_E-WQSqIn5DrD2-56" value="&lt;span style=&quot;font-size: 25px;&quot;&gt;Cargo&lt;/span&gt;" style="rounded=0;whiteSpace=wrap;html=1;" parent="1" vertex="1">
          <mxGeometry x="255" y="1540" width="170" height="80" as="geometry" />
        </mxCell>
        <mxCell id="Z0ykWC_E-WQSqIn5DrD2-82" style="edgeStyle=orthogonalEdgeStyle;rounded=0;orthogonalLoop=1;jettySize=auto;html=1;exitX=0;exitY=0.25;exitDx=0;exitDy=0;" parent="1" source="Z0ykWC_E-WQSqIn5DrD2-64" edge="1">
          <mxGeometry relative="1" as="geometry">
            <mxPoint x="1980" y="1150" as="targetPoint" />
          </mxGeometry>
        </mxCell>
        <mxCell id="Z0ykWC_E-WQSqIn5DrD2-64" value="&lt;font style=&quot;font-size: 20px;&quot;&gt;N&lt;/font&gt;" style="rounded=0;whiteSpace=wrap;html=1;" parent="1" vertex="1">
          <mxGeometry x="1970" y="1130" width="50" height="50" as="geometry" />
        </mxCell>
        <mxCell id="Z0ykWC_E-WQSqIn5DrD2-65" value="&lt;font style=&quot;font-size: 20px;&quot;&gt;N&lt;/font&gt;" style="rounded=0;whiteSpace=wrap;html=1;" parent="1" vertex="1">
          <mxGeometry x="1840" y="440" width="50" height="50" as="geometry" />
        </mxCell>
        <mxCell id="Z0ykWC_E-WQSqIn5DrD2-66" value="&lt;span style=&quot;font-size: 20px;&quot;&gt;1&lt;/span&gt;" style="rounded=0;whiteSpace=wrap;html=1;" parent="1" vertex="1">
          <mxGeometry x="1180" y="432.5" width="50" height="50" as="geometry" />
        </mxCell>
        <mxCell id="Z0ykWC_E-WQSqIn5DrD2-67" value="&lt;font style=&quot;font-size: 20px;&quot;&gt;N&lt;/font&gt;" style="rounded=0;whiteSpace=wrap;html=1;" parent="1" vertex="1">
          <mxGeometry x="1410" y="432.5" width="50" height="50" as="geometry" />
        </mxCell>
        <mxCell id="Z0ykWC_E-WQSqIn5DrD2-69" value="&lt;font style=&quot;font-size: 20px;&quot;&gt;N&lt;/font&gt;" style="rounded=0;whiteSpace=wrap;html=1;" parent="1" vertex="1">
          <mxGeometry x="1650" y="520" width="50" height="50" as="geometry" />
        </mxCell>
        <mxCell id="Z0ykWC_E-WQSqIn5DrD2-70" value="&lt;span style=&quot;font-size: 20px;&quot;&gt;1&lt;/span&gt;" style="rounded=0;whiteSpace=wrap;html=1;" parent="1" vertex="1">
          <mxGeometry x="1650" y="710" width="50" height="50" as="geometry" />
        </mxCell>
        <mxCell id="Z0ykWC_E-WQSqIn5DrD2-71" value="&lt;span style=&quot;font-size: 20px;&quot;&gt;1&lt;/span&gt;" style="rounded=0;whiteSpace=wrap;html=1;" parent="1" vertex="1">
          <mxGeometry x="930" y="720" width="50" height="50" as="geometry" />
        </mxCell>
        <mxCell id="Z0ykWC_E-WQSqIn5DrD2-72" value="&lt;span style=&quot;font-size: 20px;&quot;&gt;N&lt;/span&gt;" style="rounded=0;whiteSpace=wrap;html=1;" parent="1" vertex="1">
          <mxGeometry x="930" y="520" width="50" height="50" as="geometry" />
        </mxCell>
        <mxCell id="Z0ykWC_E-WQSqIn5DrD2-73" value="&lt;span style=&quot;font-size: 20px;&quot;&gt;N&lt;/span&gt;" style="rounded=0;whiteSpace=wrap;html=1;" parent="1" vertex="1">
          <mxGeometry x="800" y="432.5" width="50" height="50" as="geometry" />
        </mxCell>
        <mxCell id="Z0ykWC_E-WQSqIn5DrD2-74" value="&lt;span style=&quot;font-size: 20px;&quot;&gt;N&lt;/span&gt;" style="rounded=0;whiteSpace=wrap;html=1;" parent="1" vertex="1">
          <mxGeometry x="400" y="432.5" width="50" height="50" as="geometry" />
        </mxCell>
        <mxCell id="Z0ykWC_E-WQSqIn5DrD2-75" value="&lt;span style=&quot;font-size: 20px;&quot;&gt;N&lt;/span&gt;" style="rounded=0;whiteSpace=wrap;html=1;" parent="1" vertex="1">
          <mxGeometry x="280" y="520" width="50" height="50" as="geometry" />
        </mxCell>
        <mxCell id="Z0ykWC_E-WQSqIn5DrD2-76" value="&lt;span style=&quot;font-size: 20px;&quot;&gt;1&lt;/span&gt;" style="rounded=0;whiteSpace=wrap;html=1;" parent="1" vertex="1">
          <mxGeometry x="290" y="1100" width="50" height="50" as="geometry" />
        </mxCell>
        <mxCell id="Z0ykWC_E-WQSqIn5DrD2-77" value="&lt;span style=&quot;font-size: 20px;&quot;&gt;1&lt;/span&gt;" style="rounded=0;whiteSpace=wrap;html=1;" parent="1" vertex="1">
          <mxGeometry x="290" y="1490" width="50" height="50" as="geometry" />
        </mxCell>
        <mxCell id="Z0ykWC_E-WQSqIn5DrD2-78" value="&lt;span style=&quot;font-size: 20px;&quot;&gt;N&lt;/span&gt;" style="rounded=0;whiteSpace=wrap;html=1;" parent="1" vertex="1">
          <mxGeometry x="290" y="1250" width="50" height="50" as="geometry" />
        </mxCell>
        <mxCell id="Z0ykWC_E-WQSqIn5DrD2-80" value="" style="endArrow=none;html=1;rounded=0;entryX=0;entryY=0.5;entryDx=0;entryDy=0;exitX=1;exitY=0.5;exitDx=0;exitDy=0;" parent="1" target="Z0ykWC_E-WQSqIn5DrD2-52" edge="1" source="6vCeA2fwryCrlESm8v7a-1">
          <mxGeometry width="50" height="50" relative="1" as="geometry">
            <mxPoint x="1390" y="1220" as="sourcePoint" />
            <mxPoint x="1970" y="1210" as="targetPoint" />
          </mxGeometry>
        </mxCell>
        <mxCell id="6vCeA2fwryCrlESm8v7a-1" value="&lt;font style=&quot;font-size: 18px;&quot;&gt;ESPECIALIZAR&lt;/font&gt;" style="rhombus;whiteSpace=wrap;html=1;" vertex="1" parent="1">
          <mxGeometry x="1030" y="1130" width="210" height="160" as="geometry" />
        </mxCell>
        <mxCell id="6vCeA2fwryCrlESm8v7a-4" value="&lt;font style=&quot;font-size: 20px;&quot;&gt;N&lt;/font&gt;" style="rounded=0;whiteSpace=wrap;html=1;" vertex="1" parent="1">
          <mxGeometry x="1880" y="1170" width="50" height="50" as="geometry" />
        </mxCell>
        <mxCell id="6vCeA2fwryCrlESm8v7a-5" value="&lt;span style=&quot;font-size: 20px;&quot;&gt;1&lt;/span&gt;" style="rounded=0;whiteSpace=wrap;html=1;" vertex="1" parent="1">
          <mxGeometry x="480" y="1160" width="50" height="50" as="geometry" />
        </mxCell>
      </root>
    </mxGraphModel>
  </diagram>
</mxfile>
